<svg xmlns="http://www.w3.org/2000/svg" width="1280" height="640"><defs><path id="a" d="M445.95 434.57h691.67v182.02H445.95z"/></defs><path fill="#6219e6" d="M0 0h1280v640H0z"/><text xml:space="preserve" x="874.92" fill="#6219e6" font-size="112.69" style="text-align:center;white-space:pre;shape-inside:url(#a)" transform="translate(-188.24 -46.53) scale(1.041)"><tspan x="516.26" y="537.69"><tspan fill="#fff" font-family="Comfortaa" style="-inkscape-font-specification:Comfortaa">PDFCrypt</tspan></tspan></text><path fill="#ff2116" d="M560.36 98.74a27.15 27.15 0 0 0-27.11 27.12v208.26a27.15 27.15 0 0 0 27.1 27.12h159.26a27.15 27.15 0 0 0 27.1-27.12V162.87s.44-5.01-1.74-9.9a27.41 27.41 0 0 0-5.37-7.75l-.02-.03-39.51-38.76-.07-.06a31.11 31.11 0 0 0-8.37-5.36c-5.9-2.53-11.96-2.26-11.96-2.26h.1z"/><path fill="#f5f5f5" d="M560.36 107.65h119.5c.02 0 4.77.05 8.26 1.55a22.53 22.53 0 0 1 5.76 3.64l.02.01 39.4 38.67s2.38 2.5 3.53 5.08c.93 2.09.99 5.9.99 5.9v171.62a18.07 18.07 0 0 1-18.21 18.21H560.36a18.07 18.07 0 0 1-18.2-18.2V125.85a18.07 18.07 0 0 1 18.2-18.21z"/><path fill="none" stroke="#ff2116" stroke-width="9.02" d="M636.18 255.87c1.2.7 1.8 1.05 2.66 1.23a6.2 6.2 0 0 0 2.29 0 8.79 8.79 0 0 0 2.66-1.23c10.62-6.2 39.8-25.66 39.8-52.42v-26.07c0-4.36 0-6.54-.7-8.41a10.9 10.9 0 0 0-2.99-4.3c-1.5-1.33-3.54-2.1-7.62-3.62l-29.23-10.97c-1.14-.42-1.7-.63-2.29-.72a5.45 5.45 0 0 0-1.56 0c-.58.09-1.15.3-2.28.72l-29.23 10.97c-4.08 1.53-6.12 2.3-7.62 3.62a10.9 10.9 0 0 0-2.98 4.3c-.72 1.87-.72 4.05-.72 8.4v26.08c0 26.76 29.19 46.22 39.8 52.42z"/><path fill="#2c2c2c" d="M596.97 283.41h9.95c3.18 0 5.76.3 7.75.92a9.1 9.1 0 0 1 5 3.97 13.07 13.07 0 0 1 2.03 7.39c0 2.65-.55 4.93-1.65 6.83a9.69 9.69 0 0 1-4.44 4.12c-1.85.85-4.7 1.27-8.54 1.27h-3.44v15.69h-6.66zm6.66 5.16v14h3.3c2.94 0 4.97-.54 6.09-1.64 1.14-1.1 1.7-2.88 1.7-5.36 0-1.84-.37-3.33-1.11-4.47-.75-1.16-1.57-1.87-2.48-2.12a15.2 15.2 0 0 0-4.2-.41zm23.17-5.16h9.03c4.38 0 7.87.78 10.48 2.33a14.45 14.45 0 0 1 5.95 6.92 24.92 24.92 0 0 1 2.03 10.18c0 3.93-.6 7.43-1.82 10.51a16.72 16.72 0 0 1-5.54 7.42c-2.47 1.89-6 2.83-10.6 2.83h-9.53zm6.65 5.33v29.53h2.77c3.86 0 6.67-1.33 8.42-4 1.74-2.7 2.62-6.27 2.62-10.75 0-9.85-3.68-14.78-11.04-14.78zm27.23-5.33H683v5.33h-15.67v12.01h12.54v5.33h-12.54v17.52h-6.65z"/></svg>