<?xml version="1.0" encoding="UTF-8"?>
<svg width="1280" height="640" version="1.1" xmlns="http://www.w3.org/2000/svg">
 <path d="M0 0h1280v640H0z" fill="#6219e6"/>
 <path transform="translate(-188.24 -46.53) scale(1.041)" d="m531.92 537.7q-1.9157 0-3.1553-1.2396t-1.2396-3.1553v-79.221q0-1.9157 1.2396-3.1553t3.1553-1.2396h22.538q8.3391 0 14.762 3.7188 6.4233 3.6061 10.029 10.029t3.6061 14.875q0 8.2264-3.6061 14.65-3.6061 6.3106-10.029 10.029-6.4233 3.6061-14.762 3.6061h-18.143v26.708q0 1.9157-1.2396 3.1553t-3.1553 1.2396zm4.3949-39.554h18.143q5.7472 0 10.255-2.4792 4.5076-2.5919 6.9868-7.0995 2.5919-4.5076 2.5919-10.255 0-5.9726-2.5919-10.48-2.4792-4.5076-6.9868-7.0995t-10.255-2.5919h-18.143zm64.571 39.554q-1.9157 0-3.1553-1.2396t-1.2396-3.1553v-79.221q0-1.9157 1.2396-3.1553t3.1553-1.2396h20.284q9.6913 0 17.692 3.268 8.1137 3.1553 13.974 9.1279 5.8599 5.8599 9.0152 13.861 3.268 8.001 3.268 17.692t-3.268 17.805q-3.1553 8.001-9.0152 13.974-5.8599 5.8599-13.974 9.1279-8.001 3.1553-17.692 3.1553zm4.3949-7.8883h15.889q10.367 0 18.256-4.6203 8.001-4.733 12.509-12.847 4.5076-8.2264 4.5076-18.707t-4.5076-18.594q-4.5076-8.2264-12.509-12.847-7.8883-4.6203-18.256-4.6203h-15.889zm75.39 7.8883q-1.803 0-3.1553-1.2396-1.2396-1.3523-1.2396-3.1553v-79.221q0-1.9157 1.2396-3.1553t3.1553-1.2396h52.852q1.9157 0 3.1553 1.2396 1.2396 1.1269 1.2396 3.0426 0 1.6904-1.2396 2.9299t-3.1553 1.2396h-48.457v31.102h35.272q1.9157 0 3.1553 1.2396t1.2396 3.0426-1.2396 3.0426-3.1553 1.2396h-35.272v35.497q0 1.803-1.2396 3.1553-1.2396 1.2396-3.1553 1.2396zm112.58 1.1269q-9.1279 0-17.129-3.4934-7.8883-3.4934-13.974-9.6913-5.9726-6.3106-9.3533-14.424-3.3807-8.2264-3.3807-17.58 0-9.2406 3.268-17.354 3.3807-8.2264 9.3533-14.424 6.0853-6.198 13.974-9.6913 8.001-3.6061 17.242-3.6061 8.1137 0 14.762 2.3665t12.847 7.5502q1.0142 0.78883 1.1269 1.9157 0.22538 1.0142-0.22538 2.0284-0.45076 0.90152-1.3523 1.3523-0.22538 0.90152-1.1269 1.3523t-2.1411 0.33807q-1.1269-0.11269-2.2538-1.0142-4.3949-3.8315-9.5786-5.6345-5.1837-1.9157-12.058-1.9157-7.3248 0-13.748 2.9299-6.3106 2.9299-11.156 8.001t-7.6629 11.72q-2.7046 6.6487-2.7046 14.086 0 7.6629 2.7046 14.312 2.8172 6.6487 7.6629 11.72t11.156 8.001q6.4233 2.8172 13.748 2.8172 6.198 0 11.72-2.0284t10.48-5.8599q1.3523-1.1269 2.8172-0.90152 1.5777 0.22538 2.7046 1.3523t1.1269 2.9299q0 0.90152-0.33807 1.6904-0.22538 0.67614-0.90152 1.465-5.7472 5.2964-12.847 7.5502-7.0995 2.1411-14.762 2.1411zm49.471-39.103q0.33807-6.9868 3.6061-12.509 3.3807-5.5218 8.6771-8.6771 5.4091-3.1553 11.945-3.1553 5.1837 0 8.001 1.465t2.1411 4.2822q-0.45076 1.6904-1.5777 2.2538-1.0142 0.56345-2.5919 0.45076-1.465-0.11269-3.3807-0.22538-6.3106-0.56345-11.269 1.3523-4.8457 1.803-7.7756 5.6345-2.8172 3.8315-2.8172 9.1279zm0.67614 37.977q-2.0284 0-3.1553-1.1269t-1.1269-3.1553v-53.077q0-2.0284 1.1269-3.1553t3.1553-1.1269 3.1553 1.1269 1.1269 3.1553v53.077q0 2.0284-1.1269 3.1553t-3.1553 1.1269zm57.923 26.82q-0.90152 0-2.0284-0.45076-3.8315-1.6904-2.1411-5.4091l36.399-80.235q1.6904-3.6061 5.4091-2.0284 3.8315 1.5777 2.1411 5.2964l-36.512 80.235q-1.1269 2.5919-3.268 2.5919zm12.509-28.736q-1.6904 0.78883-3.1553 0.33807-1.465-0.56345-2.3665-2.2538l-25.13-52.063q-0.78883-1.6904-0.22538-3.1553t2.2538-2.2538 3.1553-0.22538q1.465 0.45076 2.2538 2.1411l24.679 52.063q0.90152 1.6904 0.56345 3.1553t-2.0284 2.2538zm43.048 28.285q-2.0284 0-3.268-1.2396-1.1269-1.1269-1.1269-3.1553v-53.19q0.11269-8.7898 4.1695-15.777 4.1695-7.0995 11.156-11.156 7.0995-4.0568 15.889-4.0568 9.0152 0 16.115 4.1695 7.0994 4.0568 11.156 11.156 4.1695 7.0995 4.1695 16.115 0 8.9025-4.0568 16.002-3.9442 7.0995-10.818 11.269-6.8741 4.0568-15.551 4.0568-7.5502 0-13.748-3.1553-6.0853-3.268-9.804-8.5644v33.131q0 2.0284-1.2396 3.1553-1.1269 1.2396-3.0426 1.2396zm26.82-33.694q6.536 0 11.72-3.0426 5.1838-3.0426 8.1137-8.3391 3.0427-5.4091 3.0427-12.058 0-6.7614-3.0427-12.058-2.9299-5.2964-8.1137-8.3391-5.1837-3.1553-11.72-3.1553-6.4233 0-11.607 3.1553-5.1837 3.0426-8.1137 8.3391t-2.9299 12.058q0 6.6487 2.9299 12.058 2.9299 5.2964 8.1137 8.3391t11.607 3.0426zm72.572 7.3248q-5.9725 0-10.706-2.8172-4.6203-2.8172-7.3249-7.6629-2.7045-4.9584-2.7045-11.269v-55.105q0-1.9157 1.1269-3.1553 1.2396-1.2396 3.1553-1.2396t3.1553 1.2396 1.2396 3.1553v55.105q0 5.7472 3.3807 9.466 3.3807 3.6061 8.6771 3.6061h3.0427q1.803 0 2.9299 1.2396t1.1269 3.1553-1.3523 3.1553q-1.3522 1.1269-3.3807 1.1269zm-28.06-51.837q-1.6903 0-2.8172-1.0142-1.1269-1.1269-1.1269-2.7046 0-1.6904 1.1269-2.7046 1.1269-1.1269 2.8172-1.1269h28.736q1.6903 0 2.8172 1.1269 1.1269 1.0142 1.1269 2.7046 0 1.5777-1.1269 2.7046-1.1269 1.0142-2.8172 1.0142z" fill="#fff" style="white-space:pre" aria-label="PDFCrypt"/>
 <path d="M560.36 98.74a27.15 27.15 0 0 0-27.11 27.12v208.26a27.15 27.15 0 0 0 27.1 27.12h159.26a27.15 27.15 0 0 0 27.1-27.12V162.87s.44-5.01-1.74-9.9a27.41 27.41 0 0 0-5.37-7.75l-.02-.03-39.51-38.76-.07-.06a31.11 31.11 0 0 0-8.37-5.36c-5.9-2.53-11.96-2.26-11.96-2.26h.1z" fill="#ff2116"/>
 <path d="M560.36 107.65h119.5c.02 0 4.77.05 8.26 1.55a22.53 22.53 0 0 1 5.76 3.64l.02.01 39.4 38.67s2.38 2.5 3.53 5.08c.93 2.09.99 5.9.99 5.9v171.62a18.07 18.07 0 0 1-18.21 18.21H560.36a18.07 18.07 0 0 1-18.2-18.2V125.85a18.07 18.07 0 0 1 18.2-18.21z" fill="#f5f5f5"/>
 <path d="M636.18 255.87c1.2.7 1.8 1.05 2.66 1.23a6.2 6.2 0 0 0 2.29 0 8.79 8.79 0 0 0 2.66-1.23c10.62-6.2 39.8-25.66 39.8-52.42v-26.07c0-4.36 0-6.54-.7-8.41a10.9 10.9 0 0 0-2.99-4.3c-1.5-1.33-3.54-2.1-7.62-3.62l-29.23-10.97c-1.14-.42-1.7-.63-2.29-.72a5.45 5.45 0 0 0-1.56 0c-.58.09-1.15.3-2.28.72l-29.23 10.97c-4.08 1.53-6.12 2.3-7.62 3.62a10.9 10.9 0 0 0-2.98 4.3c-.72 1.87-.72 4.05-.72 8.4v26.08c0 26.76 29.19 46.22 39.8 52.42z" fill="none" stroke="#ff2116" stroke-width="9.02"/>
 <path d="M596.97 283.41h9.95c3.18 0 5.76.3 7.75.92a9.1 9.1 0 0 1 5 3.97 13.07 13.07 0 0 1 2.03 7.39c0 2.65-.55 4.93-1.65 6.83a9.69 9.69 0 0 1-4.44 4.12c-1.85.85-4.7 1.27-8.54 1.27h-3.44v15.69h-6.66zm6.66 5.16v14h3.3c2.94 0 4.97-.54 6.09-1.64 1.14-1.1 1.7-2.88 1.7-5.36 0-1.84-.37-3.33-1.11-4.47-.75-1.16-1.57-1.87-2.48-2.12a15.2 15.2 0 0 0-4.2-.41zm23.17-5.16h9.03c4.38 0 7.87.78 10.48 2.33a14.45 14.45 0 0 1 5.95 6.92 24.92 24.92 0 0 1 2.03 10.18c0 3.93-.6 7.43-1.82 10.51a16.72 16.72 0 0 1-5.54 7.42c-2.47 1.89-6 2.83-10.6 2.83h-9.53zm6.65 5.33v29.53h2.77c3.86 0 6.67-1.33 8.42-4 1.74-2.7 2.62-6.27 2.62-10.75 0-9.85-3.68-14.78-11.04-14.78zm27.23-5.33H683v5.33h-15.67v12.01h12.54v5.33h-12.54v17.52h-6.65z" fill="#2c2c2c"/>
</svg>
